<svg xmlns="http://www.w3.org/2000/svg" width="188" height="280" viewBox="0 0 188 280">
  <g fill="none" fill-rule="evenodd">
    <path fill="#E8B734" d="M72.2312792,0 C97.4309513,0 114.936142,13.2364401 116.11445,32.0649444 C117.046244,32.0217658 117.993497,32 118.954225,32 C140.524205,32 155.390093,42.9716719 155.895955,58.465168 C155.964528,58.7758703 156,59.0981264 156,59.4285714 C156,61.8767947 154.052911,63.8755187 151.605834,63.9944054 L151.375,64 L123.745192,63.9995836 C133.323432,69.8913706 139.0606,78.6695831 139.413409,89.08146 C139.50237,89.4698378 139.548387,89.872658 139.548387,90.2857143 C139.548387,93.3459934 137.022434,95.8443984 133.847848,95.9930067 L133.548387,96 L49.5483871,96 C46.335094,96 43.7117688,93.5943308 43.5557301,90.5709148 L43.5483871,90.2857143 C43.5483871,89.5153061 43.5771454,88.7533769 43.6340788,88.0004167 L31,88 C29.3933535,88 28.0816908,86.7370236 28.0036715,85.1497303 L28,85 C28,74.5 37.6906163,67 51.9703081,67 C52.971979,67 53.9513614,67.036904 54.906633,67.1091589 C61.5932769,61.6100685 70.9429076,57.8651468 82.1666763,56.5357046 C82.9407246,49.9252391 86.3741637,44.2326975 91.8466764,39.9996682 L33.7857143,40 C30.8401956,40 28.4354808,37.5943308 28.2924453,34.5709148 L28.2857143,34.2857143 C28.2857143,14.2857143 46.0518442,0 72.2312792,0 Z"/>
    <path fill="#D4D1B1" d="M88,28 C90.209139,28 92,29.790861 92,32 L92,32 L92,56 L92.0038068,56.2491793 C92.1354571,60.5521622 95.6650857,64 100,64 C108.836556,64 116,71.163444 116,80 L116,80 L116,112 L115.996964,112.314871 C115.829205,121.006099 108.731359,128 100,128 L100,128 L100,112 C104.418278,112 108,108.418278 108,104 L108,104 L108,80 L107.996193,79.7508207 C107.864543,75.4478378 104.334914,72 100,72 L100,72 L99.6851293,71.9969636 C90.993901,71.8292047 84,64.7313589 84,56 L84,56 L83.6851293,55.9969636 C74.993901,55.8292047 68,48.7313589 68,40 L68,40 L68.0048953,39.8003597 C68.1089211,37.6839685 69.8578046,36 72,36 C74.209139,36 76,37.790861 76,40 C76,44.418278 79.581722,48 84,48 L84,48 L84,32 L84.0048953,31.8003597 C84.1089211,29.6839685 85.8578046,28 88,28 Z M40,100 C42.209139,100 44,101.790861 44,104 C44,108.418278 47.581722,112 52,112 L52,112 L84,112 L84,120 L52,120 L51.6851293,119.996964 C42.993901,119.829205 36,112.731359 36,104 L36,104 L36.0048953,103.80036 C36.1089211,101.683968 37.8578046,100 40,100 Z M120,60 C122.209139,60 124,61.790861 124,64 C124,68.418278 127.581722,72 132,72 L132,72 L140,72 L140,80 L132,80 L131.685129,79.9969636 C122.993901,79.8292047 116,72.7313589 116,64 L116,64 L116.004895,63.8003597 C116.108921,61.6839685 117.857805,60 120,60 Z"/>
    <path fill="#F1EFE2" d="M84,104 L100,104 L100,272 C100,276.418278 96.418278,280 92,280 C87.581722,280 84,276.418278 84,272 L84,272 L84,104 Z M60,80 C68.836556,80 76,87.163444 76,96 L76,96 L68,96 C68,91.581722 64.418278,88 60,88 L60,88 Z M44,72 C44,76.418278 47.581722,80 52,80 L52,80 L52,88 C43.163444,88 36,80.836556 36,72 L36,72 Z M128,108 C130.209139,108 132,109.790861 132,112 L132,112 L132,128 C132,136.836556 124.836556,144 116,144 L100,144 L100,136 L116,136 C120.418278,136 124,132.418278 124,128 L124,112 L124.004895,111.80036 C124.108921,109.683968 125.857805,108 128,108 Z M76,96 C76,100.418278 79.581722,104 84,104 L84,120 C75.2686411,120 68.1707953,113.006099 68.0030364,104.314871 L68,104 L68,96 L76,96 Z M136,28 C138.209139,28 140,29.790861 140,32 L140,32 L140.000318,50.1403311 C142.353633,48.7790841 145.085834,48 148,48 C152.418278,48 156,44.418278 156,40 L156.004895,39.8003597 C156.108921,37.6839685 157.857805,36 160,36 C162.209139,36 164,37.790861 164,40 L164,40 C164,48.836556 156.836556,56 148,56 C143.581722,56 140,59.581722 140,64 L140,80 C140,88.836556 132.836556,96 124,96 L108,96 C103.581722,96 100,99.581722 100,104 L84,104 C84,95.2686411 90.993901,88.1707953 99.6851293,88.0030364 L100,88 L124,88 C128.418278,88 132,84.418278 132,80 L132,32 L132.004895,31.8003597 C132.108921,29.6839685 133.857805,28 136,28 Z M60,80 L60,88 L52,88 L52,80 L60,80 Z M40,52 C42.209139,52 44,53.790861 44,56 L44,56 L44,72 L36,72 L36,56 L36.0048953,55.8003597 C36.1089211,53.6839685 37.8578046,52 40,52 Z"/>
    <path fill="#7F7454" d="M100,256 L100,260 L92,260 C90.8954305,260 90,259.104569 90,258 C90,256.895431 90.8954305,256 92,256 L92,256 L100,256 Z M92,250 C93.1045695,250 94,250.895431 94,252 C94,253.104569 93.1045695,254 92,254 L84,254 L84,250 L92,250 Z M100,240 L100,244 L94,244 C92.8954305,244 92,243.104569 92,242 C92,240.895431 92.8954305,240 94,240 L94,240 L100,240 Z M90,231 C91.1045695,231 92,231.895431 92,233 C92,234.104569 91.1045695,235 90,235 L84,235 L84,231 L90,231 Z M94,224 C95.1045695,224 96,224.895431 96,226 C96,227.104569 95.1045695,228 94,228 L84,228 L84,224 L94,224 Z M100,212 L100,216 L90,216 C88.8954305,216 88,215.104569 88,214 C88,212.895431 88.8954305,212 90,212 L90,212 L100,212 Z M90,206 C91.1045695,206 92,206.895431 92,208 C92,209.104569 91.1045695,210 90,210 L84,210 L84,206 L90,206 Z M100,196 L100,200 L96,200 C94.8954305,200 94,199.104569 94,198 C94,196.895431 94.8954305,196 96,196 L96,196 L100,196 Z M92,180 C93.1045695,180 94,180.895431 94,182 C94,183.104569 93.1045695,184 92,184 L84,184 L84,180 L92,180 Z M88,174 C89.1045695,174 90,174.895431 90,176 C90,177.104569 89.1045695,178 88,178 L84,178 L84,174 L88,174 Z M100,154 L100,158 L94,158 C92.8954305,158 92,157.104569 92,156 C92,154.895431 92.8954305,154 94,154 L94,154 L100,154 Z M90,129 C91.1045695,129 92,129.895431 92,131 C92,132.104569 91.1045695,133 90,133 L84,133 L84,129 L90,129 Z"/>
    <path fill="#FFDF4D" d="M131.970308,92 C145.961647,92 155.604385,98.857295 155.932511,108.54073 C155.976991,108.734919 156,108.936329 156,109.142857 C156,110.672997 154.737024,111.922199 153.14973,111.996503 L153,112 L111,112 C109.393353,112 108.081691,110.797165 108.003671,109.285457 L108,109.142857 C108,99.1428571 117.690616,92 131.970308,92 Z M39.9752568,88 C51.6347057,88 59.6703207,93.485836 59.9437593,101.232584 C59.9808261,101.387935 60,101.549063 60,101.714286 C60,102.938397 58.9475197,103.937759 57.6247752,103.997203 L57.5,104 L22.5,104 C21.1611279,104 20.0680757,103.037732 20.0030596,101.828366 L20,101.714286 C20,93.7142857 28.0755136,88 39.9752568,88 Z M111.970308,43 C125.961647,43 135.604385,50.2001597 135.932511,60.3677665 C135.976991,60.5716649 136,60.7831454 136,61 C136,62.6066465 134.737024,63.9183092 133.14973,63.9963285 L133,64 L91,64 C89.3933535,64 88.0816908,62.7370236 88.0036715,61.1497303 L88,61 C88,50.5 97.6906163,43 111.970308,43 Z M79.4746382,21 C91.4255733,21 99.6620787,27.5144302 99.9423533,36.7136935 C99.9803468,36.898173 100,37.0895125 100,37.2857143 C100,38.7393469 98.9212077,39.9260892 97.5653946,39.9966782 L97.4375,40 L68.8537928,39.9997826 C70.7140634,43.1825107 71.7717394,46.7644312 71.8987667,50.6381315 C71.965487,50.9391243 72,51.2513099 72,51.5714286 C72,53.9431449 70.1055355,55.8794088 67.7245954,55.9945802 L67.5,56 L4.5,56 C2.09003018,56 0.122536265,54.1356063 0.00550722064,51.792459 L0,51.5714286 C0,36.0714286 14.5359244,25 35.9554622,25 C45.7081248,25 54.0521925,27.2952494 60.2401553,31.2587312 C62.9790458,25.0437305 70.0588914,21 79.4746382,21 Z M129.962885,6 C143.937593,6 154.441686,11.6917143 158.308236,20.4015629 C160.098066,20.137364 161.990061,20 163.970308,20 C177.961647,20 187.604385,26.857295 187.932511,36.54073 C187.976991,36.7349189 188,36.936329 188,37.1428571 C188,38.6729967 186.737024,39.9221992 185.14973,39.9965034 L185,40 L143,40 C141.393353,40 140.081691,38.7971654 140.003671,37.2854574 L140,37.1428571 C140,35.325806 140.319953,33.6030885 140.929252,32.0004158 L103.75,32 C101.741692,32 100.102114,30.436315 100.004589,28.4710946 L100,28.2857143 C100,15.2857143 112.11327,6 129.962885,6 Z"/>
  </g>
</svg>
